# xmcd
# 
# Track frame offsets:
#     150
#     11351
#     30459
#     42762
#     67499
#     80720
#     103313
#     119068
#     137579
#     151605
#     171630
# 
# Disc length: 2492
# 
# Revision: 1
# Processed by: cddbd v1.5.2PL0 Copyright (c) Steve Scherf et al.
# Submitted via: fre:ac v1.0.31
# 
DISCID=9709ba0b
DTITLE=Diane Tell - Docteur Boris et Mister Vian
DYEAR=2009
DGENRE=Jazz
TTITLE0=J'voudrais encore être amoureuse
TTITLE1=Rue d'la Flemme
TTITLE2=Voyage au paradis
TTITLE3=J'en ai marre de l'amour
TTITLE4=Ma chansonnette
TTITLE5=Vous auriez bien pu
TTITLE6=Moi sans toi
TTITLE7=Nanna's lied
TTITLE8=Lui, toi et moi
TTITLE9=Toi qui as pris mon coeur
TTITLE10=Celui qui tient le monde dans ses mains
EXTD=YEAR: 2009
EXTT0=
EXTT1=
EXTT2=
EXTT3=
EXTT4=
EXTT5=
EXTT6=
EXTT7=
EXTT8=
EXTT9=
EXTT10=
PLAYORDER=
